:SAMPLES-PER-SECOND 30
:FULLY-SPECIFIED
:DEGREES
215
root  5.31206 18.8288 -51.9403 -117.222 8.86754 -176.318
RightUpLeg  -56.4413 -2.71657 -0.864473
RightLeg  106.601 18.401 -7.90681
RightFoot  -4.63678 0.402674 -5.22294
RightToes  -5.82073e-011 -3.18055e-015 -2.98177e-016
Spine  30.478 -2.45134 6.95696
Spine1  -6.91886 -0.936869 -1.55252
HEad  -26.1194 11.2663 -1.5727
LeftShoulder1  -3.88251e-019 9.70628e-020 -3.87848e-018
LeftArm  -9.39297 -24.7002 -52.9361
LeftForeArm  5.89022 -20.7433 2.94104
LeftHand  -7.37955 -9.97415 53.388
RightShoulder  3.21106 9.03218 14.1151
RightArm  6.05893 18.2534 72.7002
RightForeArm  21.0486 7.16769 -4.68181
RightHand  -12.692 10.9247 -76.4016
LeftUpLeg  -55.5177 0.833521 -17.512
LeftLeg  99.8886 -17.8637 18.2062
LeftFoot  -10.0066 0.529005 -20.4179
LeftToes  -3.44176e-011 4.05998e-011 -5.21293e-012
216
root  5.0978 18.7834 -52.3692 -116.577 8.52441 -175.305
RightUpLeg  -61.893 -2.08731 -0.233097
RightLeg  113.021 18.4821 -6.12506
RightFoot  -8.93462 0.246778 -5.89877
RightToes  -5.82073e-011 -3.18055e-015 -2.98177e-016
Spine  30.4587 -1.86669 6.82999
Spine1  -7.14915 -0.613075 0.49485
HEad  -26.0438 11.2099 -2.53637
LeftShoulder1  -3.88251e-019 9.70628e-020 -3.87848e-018
LeftArm  -8.06811 -27.7984 -52.98
LeftForeArm  5.19282 -15.4551 0.697547
LeftHand  -7.36659 -9.33117 55.3226
RightShoulder  3.34356 9.07942 14.8635
RightArm  6.18626 18.0499 72.1413
RightForeArm  22.8737 7.22606 -4.71419
RightHand  -12.7303 10.9127 -76.6118
LeftUpLeg  -54.629 0.7952 -16.8084
LeftLeg  98.6901 -17.361 17.7688
LeftFoot  -10.1587 0.500965 -20.4038
LeftToes  -3.44176e-011 4.05998e-011 -5.21293e-012
217
root  4.92104 18.7417 -52.8532 -116.433 7.7916 -174.712
RightUpLeg  -66.8194 -1.86189 0.799074
RightLeg  118.299 18.461 -4.98661
RightFoot  -11.9154 0.106179 -6.17889
RightToes  -5.82073e-011 -3.18055e-015 -2.98177e-016
Spine  29.9124 -1.48135 8.05299
Spine1  -6.26901 -0.0336565 1.10716
HEad  -25.2488 9.93719 -3.23746
LeftShoulder1  -3.88251e-019 9.70628e-020 -3.87848e-018
LeftArm  -5.92809 -28.5567 -54.5056
LeftForeArm  2.91954 -12.8426 -0.714891
LeftHand  -7.75447 -9.26346 58.0117
RightShoulder  3.59809 9.21948 16.2066
RightArm  5.89171 17.7785 70.0093
RightForeArm  24.306 7.95032 -5.20761
RightHand  -12.634 10.7978 -76.5785
LeftUpLeg  -53.1754 0.393623 -15.7997
LeftLeg  97.4388 -16.8302 17.1822
LeftFoot  -10.2922 0.470068 -20.1434
LeftToes  -3.44176e-011 4.05998e-011 -5.21293e-012
218
root  4.81558 18.7146 -53.3336 -117.618 6.75452 -174.873
RightUpLeg  -70.133 -1.98108 2.0773
RightLeg  122.435 18.7028 -4.69019
RightFoot  -14.249 -0.00790676 -5.9917
RightToes  -5.82073e-011 -3.18055e-015 -2.98177e-016
Spine  30.0858 -1.70503 9.67499
Spine1  -4.95064 0.220283 0.766618
HEad  -24.3357 8.24595 -3.49883
LeftShoulder1  -3.88251e-019 9.70628e-020 -3.87848e-018
LeftArm  -4.50291 -29.0829 -56.2285
LeftForeArm  1.87896 -11.928 -1.85368
LeftHand  -8.25035 -9.52862 60.1568
RightShoulder  3.97738 9.43855 18.1413
RightArm  5.59031 17.372 67.2774
RightForeArm  25.2157 9.10026 -5.71888
RightHand  -12.5814 10.7081 -76.6534
LeftUpLeg  -50.4515 -0.321244 -14.7222
LeftLeg  96.2548 -16.3381 16.5394
LeftFoot  -10.284 0.456839 -19.5775
LeftToes  -3.44176e-011 4.05998e-011 -5.21293e-012
219
root  4.77035 18.713 -53.7811 -120.094 5.49484 -175.503
RightUpLeg  -71.6107 -2.33406 3.49395
RightLeg  125.274 19.1211 -4.83522
RightFoot  -16.5937 -0.11417 -5.51821
RightToes  -5.82073e-011 -3.18055e-015 -2.98177e-016
Spine  31.822 -2.28934 10.4992
Spine1  -4.35099 0.0214493 1.08676
HEad  -23.9165 6.74085 -3.86366
LeftShoulder1  -3.88251e-019 9.70628e-020 -3.87848e-018
LeftArm  -3.20654 -29.8627 -57.8033
LeftForeArm  1.98086 -10.768 -2.88621
LeftHand  -8.71961 -9.78713 62.0462
RightShoulder  4.3456 9.6507 19.9619
RightArm  5.60461 16.8695 65.0371
RightForeArm  25.9202 9.79432 -5.71073
RightHand  -12.6567 10.7179 -76.955
LeftUpLeg  -46.5745 -1.09704 -13.7461
LeftLeg  95.0252 -15.9509 16.3347
LeftFoot  -9.85734 0.515196 -18.9953
LeftToes  -3.44176e-011 4.05998e-011 -5.21293e-012
220
root  4.81415 18.6597 -54.2017 -122.033 4.50249 -176.335
RightUpLeg  -73.2664 -2.69864 4.7911
RightLeg  126.771 19.6394 -5.25677
RightFoot  -16.6202 -0.134754 -6.6183
RightToes  -5.82073e-011 -3.18055e-015 -2.98177e-016
Spine  33.2682 -2.34459 9.89583
Spine1  -4.35912 -0.221514 2.67789
HEad  -23.8934 5.23778 -4.59056
LeftShoulder1  -3.88251e-019 9.70628e-020 -3.87848e-018
LeftArm  -2.0953 -29.9411 -59.6057
LeftForeArm  2.77426 -9.42088 -3.59357
LeftHand  -9.12687 -9.95234 63.8116
RightShoulder  4.57076 9.79456 21.0214
RightArm  5.68234 16.1409 63.2485
RightForeArm  26.4392 9.85315 -5.27233
RightHand  -12.7989 10.8079 -77.2737
LeftUpLeg  -43.3169 -1.75171 -13.2773
LeftLeg  93.7123 -15.6636 16.7762
LeftFoot  -9.47361 0.584231 -19.1163
LeftToes  -3.44176e-011 4.05998e-011 -5.21293e-012
221
root  4.9542 18.5031 -54.6454 -122.339 4.13097 -176.866
RightUpLeg  -76.1872 -2.24528 6.07526
RightLeg  126.955 20.5694 -6.37523
RightFoot  -11.9955 0.136159 -9.31262
RightToes  -5.82073e-011 -3.18055e-015 -2.98177e-016
Spine  33.1259 -1.70614 8.85564
Spine1  -4.39779 -0.000828846 3.78323
HEad  -23.9254 3.48038 -5.17836
LeftShoulder1  -3.88251e-019 9.70628e-020 -3.87848e-018
LeftArm  -1.49963 -29.2074 -61.665
LeftForeArm  4.16866 -8.96163 -3.90257
LeftHand  -9.43617 -10.1031 65.0177
RightShoulder  4.66801 9.86102 21.464
RightArm  5.37556 14.6901 61.3473
RightForeArm  26.3848 10.1015 -4.98962
RightHand  -12.9536 10.9104 -77.5987
LeftUpLeg  -41.536 -1.71532 -13.2613
LeftLeg  92.2744 -15.3818 17.6271
LeftFoot  -9.71197 0.556768 -19.5518
LeftToes  -3.44176e-011 4.05998e-011 -5.21293e-012
222
root  5.16849 18.2991 -55.1356 -121.762 3.82472 -177.684
RightUpLeg  -78.9903 -1.63534 7.31667
RightLeg  126.028 22.0579 -8.4397
RightFoot  -4.80807 0.74933 -10.111
RightToes  -5.82073e-011 -3.18055e-015 -2.98177e-016
Spine  31.7566 -1.12729 7.98339
Spine1  -4.02484 0.252074 3.76174
HEad  -24.1165 1.49479 -5.33044
LeftShoulder1  -3.88251e-019 9.70628e-020 -3.87848e-018
LeftArm  -1.07727 -28.6083 -63.7534
LeftForeArm  5.90587 -9.25373 -4.19031
LeftHand  -9.65225 -10.2341 65.747
RightShoulder  4.77623 9.88047 22.0476
RightArm  4.9245 12.2913 59.0019
RightForeArm  25.641 11.3056 -5.16947
RightHand  -13.0906 10.9411 -78.0885
LeftUpLeg  -40.4938 -1.59502 -13.496
LeftLeg  90.4846 -15.0096 18.979
LeftFoot  -10.0369 0.491947 -19.27
LeftToes  -3.44176e-011 4.05998e-011 -5.21293e-012
223
root  5.4179 18.2053 -55.6805 -121.976 2.55078 -178.855
RightUpLeg  -78.8712 -2.04508 9.15697
RightLeg  123.974 23.935 -11.4772
RightFoot  0.797743 1.23607 -10.1161
RightToes  -5.82073e-011 -3.18055e-015 -2.98177e-016
Spine  31.2695 -1.12639 7.88724
Spine1  -3.65196 0.266174 3.44889
HEad  -24.732 -0.737591 -5.51953
LeftShoulder1  -3.88251e-019 9.70628e-020 -3.87848e-018
LeftArm  -0.3637 -28.5671 -65.9634
LeftForeArm  7.65804 -9.2782 -4.71043
LeftHand  -9.87559 -10.3254 66.6333
RightShoulder  4.99085 9.89287 23.2436
RightArm  5.53507 9.41531 56.0261
RightForeArm  23.9585 13.5627 -5.80186
RightHand  -13.0714 10.8641 -78.2713
LeftUpLeg  -38.7224 -1.88368 -13.0511
LeftLeg  88.2159 -14.4528 20.9998
LeftFoot  -9.81152 0.500558 -18.2486
LeftToes  -3.44176e-011 4.05998e-011 -5.21293e-012
224
root  5.66087 18.2226 -56.2813 -122.851 0.427902 -179.287
RightUpLeg  -76.0592 -3.31909 12.0301
RightLeg  121.406 25.0998 -14.0665
RightFoot  2.65721 1.44647 -10.477
RightToes  -5.82073e-011 -3.18055e-015 -2.98177e-016
Spine  32.1126 -1.45056 9.25127
Spine1  -3.70385 0.53101 2.65491
HEad  -25.527 -3.15152 -6.17076
LeftShoulder1  -3.88251e-019 9.70628e-020 -3.87848e-018
LeftArm  0.488116 -28.6997 -68.2749
LeftForeArm  9.41124 -8.76689 -5.33124
LeftHand  -10.1823 -10.4422 67.8518
RightShoulder  5.23825 9.90161 24.6222
RightArm  8.34458 6.43016 52.6498
RightForeArm  20.078 16.5502 -7.30075
RightHand  -12.7142 10.7382 -77.1337
LeftUpLeg  -36.4471 -1.91799 -11.35
LeftLeg  85.8964 -13.7353 23.1525
LeftFoot  -9.52465 0.521066 -17.3995
LeftToes  -3.44176e-011 4.05998e-011 -5.21293e-012
225
root  5.90812 18.1505 -56.8834 -122.403 -0.867279 -178.377
RightUpLeg  -73.9665 -3.83727 14.7946
RightLeg  119.51 25.1011 -14.9706
RightFoot  2.19032 1.48529 -11.0624
RightToes  -5.82073e-011 -3.18055e-015 -2.98177e-016
Spine  32.0195 -1.31081 10.9401
Spine1  -3.77619 1.43595 0.693027
HEad  -25.9125 -5.12359 -7.01052
LeftShoulder1  -3.88251e-019 9.70628e-020 -3.87848e-018
LeftArm  1.234 -28.7962 -69.9736
LeftForeArm  11.0757 -8.22005 -5.94599
LeftHand  -10.515 -10.6108 68.9917
RightShoulder  5.3745 9.87864 25.4287
RightArm  12.1285 3.03221 50.0303
RightForeArm  14.0524 19.7113 -10.0551
RightHand  -12.0704 10.6608 -74.4917
LeftUpLeg  -35.761 -0.592376 -9.44358
LeftLeg  84.3019 -13.1348 24.4803
LeftFoot  -9.45818 0.513401 -16.8432
LeftToes  -3.44176e-011 4.05998e-011 -5.21293e-012
226
root  6.20477 17.9486 -57.4093 -120.237 -0.36911 -176.991
RightUpLeg  -74.0127 -2.64179 15.8819
RightLeg  118.686 24.4838 -14.4825
RightFoot  1.47647 1.33849 -10.45
RightToes  -5.82073e-011 -3.18055e-015 -2.98177e-016
Spine  29.9623 -0.327584 10.7314
Spine1  -3.27724 2.50981 -1.44377
HEad  -25.6911 -5.90494 -7.6129
LeftShoulder1  -3.88251e-019 9.70628e-020 -3.87848e-018
LeftArm  1.75728 -28.9629 -70.4031
LeftForeArm  12.4965 -7.89857 -6.49671
LeftHand  -10.7798 -10.7736 69.7714
RightShoulder  5.38357 9.82791 25.576
RightArm  12.8027 -0.627107 49.1822
RightForeArm  10.1522 22.8541 -12.793
RightHand  -11.479 10.6969 -71.6077
LeftUpLeg  -37.3619 2.11017 -8.71085
LeftLeg  83.725 -12.8929 24.8103
LeftFoot  -8.38821 0.629632 -15.8274
LeftToes  -3.44176e-011 4.05998e-011 -5.21293e-012
227
root  6.53231 17.8477 -57.824 -118.381 0.535889 -176.48
RightUpLeg  -74.1605 -1.19838 15.2036
RightLeg  118.378 23.4333 -13.039
RightFoot  1.10722 1.0855 -8.71698
RightToes  -5.82073e-011 -3.18055e-015 -2.98177e-016
Spine  27.7252 0.587489 8.71379
Spine1  -2.35862 2.86804 -2.10056
HEad  -25.1897 -5.60557 -7.9253
LeftShoulder1  -3.88251e-019 9.70628e-020 -3.87848e-018
LeftArm  1.72304 -29.0179 -69.912
LeftForeArm  13.9094 -7.75297 -6.75209
LeftHand  -10.9731 -10.9212 70.2284
RightShoulder  5.38185 9.79425 25.631
RightArm  9.8797 -3.23466 49.6199
RightForeArm  10.5924 26.256 -14.5524
RightHand  -11.1973 10.8366 -69.7873
LeftUpLeg  -39.6597 4.30535 -8.77575
LeftLeg  83.9482 -12.9882 24.6894
LeftFoot  -5.65336 0.927039 -14.4272
LeftToes  -3.44176e-011 4.05998e-011 -5.21293e-012
228
root  6.84847 17.9974 -58.131 -118.292 -0.0622253 -177.113
RightUpLeg  -72.6623 -1.00193 14.5059
RightLeg  118.055 21.8002 -10.5967
RightFoot  0.862298 0.929123 -7.60399
RightToes  -5.82073e-011 -3.18055e-015 -2.98177e-016
Spine  27.4832 0.549851 7.33683
Spine1  -2.01872 2.35788 -1.383
HEad  -24.7164 -5.04851 -7.92879
LeftShoulder1  -3.88251e-019 9.70628e-020 -3.87848e-018
LeftArm  1.03042 -28.7768 -69.5454
LeftForeArm  15.6434 -7.69773 -6.56993
LeftHand  -11.1463 -11.098 70.4779
RightShoulder  5.39149 9.76714 25.7377
RightArm  7.09168 -3.85306 50.2279
RightForeArm  12.0333 29.678 -16.5031
RightHand  -11.1251 10.957 -69.0395
LeftUpLeg  -41.3216 4.44005 -7.84401
LeftLeg  85.1487 -13.4665 23.9065
LeftFoot  -3.31875 1.1055 -12.9863
LeftToes  -3.44176e-011 4.05998e-011 -5.21293e-012
229
root  7.13211 18.2467 -58.3441 -118.973 -2.17102 -178.436
RightUpLeg  -70.6182 -2.00588 14.647
RightLeg  117.839 19.8595 -7.47641
RightFoot  0.653533 0.916819 -7.61045
RightToes  -5.82073e-011 -3.18055e-015 -2.98177e-016
Spine  28.8541 -0.376762 7.78916
Spine1  -2.87943 1.39733 -0.734915
HEad  -24.262 -4.67697 -7.38316
LeftShoulder1  -3.88251e-019 9.70628e-020 -3.87848e-018
LeftArm  0.364004 -28.5789 -69.8168
LeftForeArm  17.3809 -7.39941 -6.25604
LeftHand  -11.3066 -11.2666 70.6869
RightShoulder  5.26926 9.64999 25.2721
RightArm  4.2283 -2.97835 50.8963
RightForeArm  13.0561 32.8308 -18.4484
RightHand  -11.0917 10.9966 -68.7492
LeftUpLeg  -42.9595 2.60958 -5.77432
LeftLeg  87.8164 -14.381 21.9096
LeftFoot  -3.9169 0.835871 -10.4023
LeftToes  -3.44176e-011 4.05998e-011 -5.21293e-012
